<?xml version="1.0" encoding="utf-8" standalone="no"?>
<!DOCTYPE svg PUBLIC "-//W3C//DTD SVG 1.1//EN"
  "http://www.w3.org/Graphics/SVG/1.1/DTD/svg11.dtd">
<svg xmlns:xlink="http://www.w3.org/1999/xlink" width="684pt" height="529.237969pt" viewBox="0 0 684 529.237969" xmlns="http://www.w3.org/2000/svg" version="1.1">
 <metadata>
  <rdf:RDF xmlns:dc="http://purl.org/dc/elements/1.1/" xmlns:cc="http://creativecommons.org/ns#" xmlns:rdf="http://www.w3.org/1999/02/22-rdf-syntax-ns#">
   <cc:Work>
    <dc:type rdf:resource="http://purl.org/dc/dcmitype/StillImage"/>
    <dc:date>2025-08-11T03:43:01.293589</dc:date>
    <dc:format>image/svg+xml</dc:format>
    <dc:creator>
     <cc:Agent>
      <dc:title>Matplotlib v3.6.3, https://matplotlib.org/</dc:title>
     </cc:Agent>
    </dc:creator>
   </cc:Work>
  </rdf:RDF>
 </metadata>
 <defs>
  <style type="text/css">*{stroke-linejoin: round; stroke-linecap: butt}</style>
 </defs>
 <g id="figure_1">
  <g id="patch_1">
   <path d="M 0 529.237969 
L 684 529.237969 
L 684 0 
L 0 0 
z
" style="fill: #ffffff"/>
  </g>
  <g id="axes_1">
   <g id="patch_2">
    <path d="M 615.540661 470.672265 
Q 599.056291 428.501425 582.978962 387.371891 
" clip-path="url(#pa6e39ac9e1)" style="fill: none; stroke: #666666; stroke-linecap: round"/>
    <path d="M 582.247317 395.388417 
L 582.978962 387.371891 
L 588.953196 392.767122 
" clip-path="url(#pa6e39ac9e1)" style="fill: none; stroke: #666666; stroke-linecap: round"/>
   </g>
   <g id="patch_3">
    <path d="M 575.247351 370.670187 
Q 550.001432 324.714302 525.293827 279.738324 
" clip-path="url(#pa6e39ac9e1)" style="fill: none; stroke: #666666; stroke-linecap: round"/>
    <path d="M 525.605257 287.782142 
L 525.293827 279.738324 
L 531.915739 284.315471 
" clip-path="url(#pa6e39ac9e1)" style="fill: none; stroke: #666666; stroke-linecap: round"/>
   </g>
   <g id="patch_4">
    <path d="M 513.654172 265.978006 
Q 459.616888 225.507425 406.474486 185.707057 
" clip-path="url(#pa6e39ac9e1)" style="fill: none; stroke: #666666; stroke-linecap: round"/>
    <path d="M 410.079381 192.904607 
L 406.474486 185.707057 
L 414.395464 187.141671 
" clip-path="url(#pa6e39ac9e1)" style="fill: none; stroke: #666666; stroke-linecap: round"/>
   </g>
   <g id="patch_5">
    <path d="M 392.155181 185.5769 
Q 368.6831 206.296836 346.049199 226.27687 
" clip-path="url(#pa6e39ac9e1)" style="fill: none; stroke: #666666; stroke-linecap: round"/>
    <path d="M 353.82941 224.210882 
L 346.049199 226.27687 
L 349.064535 218.813108 
" clip-path="url(#pa6e39ac9e1)" style="fill: none; stroke: #666666; stroke-linecap: round"/>
   </g>
   <g id="patch_6">
    <path d="M 331.320353 228.248167 
Q 202.012903 149.563537 73.660554 71.460095 
" clip-path="url(#pa6e39ac9e1)" style="fill: none; stroke: #666666; stroke-linecap: round"/>
    <path d="M 77.939908 78.278242 
L 73.660554 71.460095 
L 81.682684 72.127501 
" clip-path="url(#pa6e39ac9e1)" style="fill: none; stroke: #666666; stroke-linecap: round"/>
   </g>
   <g id="patch_7">
    <path d="M 346.125224 237.227646 
Q 459.067689 305.505744 571.053368 373.205428 
" clip-path="url(#pa6e39ac9e1)" style="fill: none; stroke: #666666; stroke-linecap: round"/>
    <path d="M 566.754247 366.399728 
L 571.053368 373.205428 
L 563.029335 372.561305 
" clip-path="url(#pa6e39ac9e1)" style="fill: none; stroke: #666666; stroke-linecap: round"/>
   </g>
   <g id="patch_8">
    <path d="M 347.189597 234.539042 
Q 429.650957 251.95947 511.018427 269.148808 
" clip-path="url(#pa6e39ac9e1)" style="fill: none; stroke: #666666; stroke-linecap: round"/>
    <path d="M 504.718004 264.138353 
L 511.018427 269.148808 
L 503.229809 271.182874 
" clip-path="url(#pa6e39ac9e1)" style="fill: none; stroke: #666666; stroke-linecap: round"/>
   </g>
   <g id="text_1">
    <g id="patch_9">
     <path d="M 592.288698 428.413811 
L 594.141808 433.154495 
Q 595.015572 435.389788 597.250865 434.516023 
L 604.462014 431.697222 
Q 606.697307 430.823457 605.823542 428.588164 
L 603.970433 423.84748 
Q 603.096668 421.612187 600.861375 422.485952 
L 593.650226 425.304753 
Q 591.414933 426.178518 592.288698 428.413811 
z
" clip-path="url(#pa6e39ac9e1)" style="fill: #ffffff; stroke: #ffffff; stroke-linejoin: miter"/>
    </g>
    <g clip-path="url(#pa6e39ac9e1)">
     <!-- 5 -->
     <g transform="translate(596.073561 426.934327) rotate(-291.350279) scale(0.08 -0.08)">
      <defs>
       <path id="DejaVuSans-35" d="M 691 4666 
L 3169 4666 
L 3169 4134 
L 1269 4134 
L 1269 2991 
Q 1406 3038 1543 3061 
Q 1681 3084 1819 3084 
Q 2600 3084 3056 2656 
Q 3513 2228 3513 1497 
Q 3513 744 3044 326 
Q 2575 -91 1722 -91 
Q 1428 -91 1123 -41 
Q 819 9 494 109 
L 494 744 
Q 775 591 1075 516 
Q 1375 441 1709 441 
Q 2250 441 2565 725 
Q 2881 1009 2881 1497 
Q 2881 1984 2565 2268 
Q 2250 2553 1709 2553 
Q 1456 2553 1204 2497 
Q 953 2441 691 2322 
L 691 4666 
z
" transform="scale(0.015625)"/>
      </defs>
      <use xlink:href="#DejaVuSans-35"/>
     </g>
    </g>
   </g>
   <g id="text_2">
    <g id="patch_10">
     <path d="M 543.280627 325.505111 
L 545.731371 329.966272 
Q 546.886928 332.069766 548.990422 330.914209 
L 555.776383 327.186334 
Q 557.879877 326.030777 556.72432 323.927283 
L 554.273576 319.466122 
Q 553.118019 317.362628 551.014525 318.518185 
L 544.228565 322.24606 
Q 542.12507 323.401617 543.280627 325.505111 
z
" clip-path="url(#pa6e39ac9e1)" style="fill: #ffffff; stroke: #ffffff; stroke-linejoin: miter"/>
    </g>
    <g clip-path="url(#pa6e39ac9e1)">
     <!-- 4 -->
     <g transform="translate(546.842325 323.548489) rotate(-298.782244) scale(0.08 -0.08)">
      <defs>
       <path id="DejaVuSans-34" d="M 2419 4116 
L 825 1625 
L 2419 1625 
L 2419 4116 
z
M 2253 4666 
L 3047 4666 
L 3047 1625 
L 3713 1625 
L 3713 1100 
L 3047 1100 
L 3047 0 
L 2419 0 
L 2419 1100 
L 313 1100 
L 313 1709 
L 2253 4666 
z
" transform="scale(0.015625)"/>
      </defs>
      <use xlink:href="#DejaVuSans-34"/>
     </g>
    </g>
   </g>
   <g id="text_3">
    <g id="patch_11">
     <path d="M 453.821046 229.001768 
L 457.895122 232.052998 
Q 459.816101 233.491692 461.254795 231.570714 
L 465.896082 225.373556 
Q 467.334776 223.452578 465.413797 222.013883 
L 461.339722 218.962653 
Q 459.418743 217.523959 457.980049 219.444938 
L 453.338762 225.642095 
Q 451.900068 227.563074 453.821046 229.001768 
z
" clip-path="url(#pa6e39ac9e1)" style="fill: #ffffff; stroke: #ffffff; stroke-linejoin: miter"/>
    </g>
    <g clip-path="url(#pa6e39ac9e1)">
     <!-- 3 -->
     <g transform="translate(456.257085 225.749111) rotate(-323.169062) scale(0.08 -0.08)">
      <defs>
       <path id="DejaVuSans-33" d="M 2597 2516 
Q 3050 2419 3304 2112 
Q 3559 1806 3559 1356 
Q 3559 666 3084 287 
Q 2609 -91 1734 -91 
Q 1441 -91 1130 -33 
Q 819 25 488 141 
L 488 750 
Q 750 597 1062 519 
Q 1375 441 1716 441 
Q 2309 441 2620 675 
Q 2931 909 2931 1356 
Q 2931 1769 2642 2001 
Q 2353 2234 1838 2234 
L 1294 2234 
L 1294 2753 
L 1863 2753 
Q 2328 2753 2575 2939 
Q 2822 3125 2822 3475 
Q 2822 3834 2567 4026 
Q 2313 4219 1838 4219 
Q 1578 4219 1281 4162 
Q 984 4106 628 3988 
L 628 4550 
Q 988 4650 1302 4700 
Q 1616 4750 1894 4750 
Q 2613 4750 3031 4423 
Q 3450 4097 3450 3541 
Q 3450 3153 3228 2886 
Q 3006 2619 2597 2516 
z
" transform="scale(0.015625)"/>
      </defs>
      <use xlink:href="#DejaVuSans-33"/>
     </g>
    </g>
   </g>
   <g id="text_4">
    <g id="patch_12">
     <path d="M 370.924827 212.68307 
L 374.740753 209.314568 
Q 376.540011 207.726276 374.95172 205.927018 
L 369.827824 200.122537 
Q 368.239533 198.323279 366.440275 199.911571 
L 362.624348 203.280072 
Q 360.82509 204.868364 362.413382 206.667622 
L 367.537277 212.472104 
Q 369.125569 214.271362 370.924827 212.68307 
z
" clip-path="url(#pa6e39ac9e1)" style="fill: #ffffff; stroke: #ffffff; stroke-linejoin: miter"/>
    </g>
    <g clip-path="url(#pa6e39ac9e1)">
     <!-- 5 -->
     <g transform="translate(368.235485 209.636514) rotate(-41.436395) scale(0.08 -0.08)">
      <use xlink:href="#DejaVuSans-35"/>
     </g>
    </g>
   </g>
   <g id="text_5">
    <g id="patch_13">
     <path d="M 196.577382 153.597045 
L 200.925615 156.24298 
Q 202.975862 157.490572 204.223454 155.440324 
L 208.248238 148.826141 
Q 209.49583 146.775894 207.445583 145.528302 
L 203.09735 142.882367 
Q 201.047103 141.634775 199.799511 143.685022 
L 195.774727 150.299205 
Q 194.527135 152.349453 196.577382 153.597045 
z
" clip-path="url(#pa6e39ac9e1)" style="fill: #ffffff; stroke: #ffffff; stroke-linejoin: miter"/>
    </g>
    <g clip-path="url(#pa6e39ac9e1)">
     <!-- 4 -->
     <g transform="translate(198.689841 150.125506) rotate(-328.679149) scale(0.08 -0.08)">
      <use xlink:href="#DejaVuSans-34"/>
     </g>
    </g>
   </g>
   <g id="text_6">
    <g id="patch_14">
     <path d="M 453.645232 309.555815 
L 458.001124 312.189121 
Q 460.054983 313.430759 461.296621 311.3769 
L 465.302195 304.751065 
Q 466.543832 302.697206 464.489973 301.455569 
L 460.13408 298.822263 
Q 458.080222 297.580625 456.838584 299.634484 
L 452.83301 306.260319 
Q 451.591373 308.314178 453.645232 309.555815 
z
" clip-path="url(#pa6e39ac9e1)" style="fill: #ffffff; stroke: #ffffff; stroke-linejoin: miter"/>
    </g>
    <g clip-path="url(#pa6e39ac9e1)">
     <!-- 4 -->
     <g transform="translate(455.747608 306.078161) rotate(-328.845412) scale(0.08 -0.08)">
      <use xlink:href="#DejaVuSans-34"/>
     </g>
    </g>
   </g>
   <g id="text_7">
    <g id="patch_15">
     <path d="M 425.86578 257.569492 
L 430.845865 258.621564 
Q 433.194039 259.117628 433.690104 256.769455 
L 435.29043 249.194149 
Q 435.786495 246.845975 433.438321 246.34991 
L 428.458236 245.297839 
Q 426.110063 244.801774 425.613998 247.149948 
L 424.013672 254.725254 
Q 423.517607 257.073427 425.86578 257.569492 
z
" clip-path="url(#pa6e39ac9e1)" style="fill: #ffffff; stroke: #ffffff; stroke-linejoin: miter"/>
    </g>
    <g clip-path="url(#pa6e39ac9e1)">
     <!-- 4 -->
     <g transform="translate(426.705732 253.593496) rotate(-348.071334) scale(0.08 -0.08)">
      <use xlink:href="#DejaVuSans-34"/>
     </g>
    </g>
   </g>
   <g id="PathCollection_1">
    <defs>
     <path id="m16d9210944" d="M 0 25.495098 
C 6.761379 25.495098 13.24674 22.808773 18.027756 18.027756 
C 22.808773 13.24674 25.495098 6.761379 25.495098 0 
C 25.495098 -6.761379 22.808773 -13.24674 18.027756 -18.027756 
C 13.24674 -22.808773 6.761379 -25.495098 0 -25.495098 
C -6.761379 -25.495098 -13.24674 -22.808773 -18.027756 -18.027756 
C -22.808773 -13.24674 -25.495098 -6.761379 -25.495098 0 
C -25.495098 6.761379 -22.808773 13.24674 -18.027756 18.027756 
C -13.24674 22.808773 -6.761379 25.495098 0 25.495098 
z
" style="stroke: #333333"/>
    </defs>
    <g clip-path="url(#pa6e39ac9e1)">
     <use xlink:href="#m16d9210944" x="618.694215" y="478.739787" style="fill: #f0e6cc; stroke: #333333"/>
     <use xlink:href="#m16d9210944" x="579.418025" y="378.262188" style="fill: #f0e6cc; stroke: #333333"/>
     <use xlink:href="#m16d9210944" x="520.586922" y="271.170207" style="fill: #f0e6cc; stroke: #333333"/>
     <use xlink:href="#m16d9210944" x="398.647922" y="179.845445" style="fill: #f0e6cc; stroke: #333333"/>
     <use xlink:href="#m16d9210944" x="338.71718" y="232.749196" style="fill: #f0e6cc; stroke: #333333"/>
     <use xlink:href="#m16d9210944" x="65.305785" y="66.376151" style="fill: #f0e6cc; stroke: #333333"/>
    </g>
   </g>
   <g id="text_8">
    <g clip-path="url(#pa6e39ac9e1)">
     <!-- Friendly Approach -->
     <g transform="translate(572.482731 481.188068) scale(0.09 -0.09)">
      <defs>
       <path id="DejaVuSans-Bold-46" d="M 588 4666 
L 3834 4666 
L 3834 3756 
L 1791 3756 
L 1791 2888 
L 3713 2888 
L 3713 1978 
L 1791 1978 
L 1791 0 
L 588 0 
L 588 4666 
z
" transform="scale(0.015625)"/>
       <path id="DejaVuSans-Bold-72" d="M 3138 2547 
Q 2991 2616 2845 2648 
Q 2700 2681 2553 2681 
Q 2122 2681 1889 2404 
Q 1656 2128 1656 1613 
L 1656 0 
L 538 0 
L 538 3500 
L 1656 3500 
L 1656 2925 
Q 1872 3269 2151 3426 
Q 2431 3584 2822 3584 
Q 2878 3584 2943 3579 
Q 3009 3575 3134 3559 
L 3138 2547 
z
" transform="scale(0.015625)"/>
       <path id="DejaVuSans-Bold-69" d="M 538 3500 
L 1656 3500 
L 1656 0 
L 538 0 
L 538 3500 
z
M 538 4863 
L 1656 4863 
L 1656 3950 
L 538 3950 
L 538 4863 
z
" transform="scale(0.015625)"/>
       <path id="DejaVuSans-Bold-65" d="M 4031 1759 
L 4031 1441 
L 1416 1441 
Q 1456 1047 1700 850 
Q 1944 653 2381 653 
Q 2734 653 3104 758 
Q 3475 863 3866 1075 
L 3866 213 
Q 3469 63 3072 -14 
Q 2675 -91 2278 -91 
Q 1328 -91 801 392 
Q 275 875 275 1747 
Q 275 2603 792 3093 
Q 1309 3584 2216 3584 
Q 3041 3584 3536 3087 
Q 4031 2591 4031 1759 
z
M 2881 2131 
Q 2881 2450 2695 2645 
Q 2509 2841 2209 2841 
Q 1884 2841 1681 2658 
Q 1478 2475 1428 2131 
L 2881 2131 
z
" transform="scale(0.015625)"/>
       <path id="DejaVuSans-Bold-6e" d="M 4056 2131 
L 4056 0 
L 2931 0 
L 2931 347 
L 2931 1631 
Q 2931 2084 2911 2256 
Q 2891 2428 2841 2509 
Q 2775 2619 2662 2680 
Q 2550 2741 2406 2741 
Q 2056 2741 1856 2470 
Q 1656 2200 1656 1722 
L 1656 0 
L 538 0 
L 538 3500 
L 1656 3500 
L 1656 2988 
Q 1909 3294 2193 3439 
Q 2478 3584 2822 3584 
Q 3428 3584 3742 3212 
Q 4056 2841 4056 2131 
z
" transform="scale(0.015625)"/>
       <path id="DejaVuSans-Bold-64" d="M 2919 2988 
L 2919 4863 
L 4044 4863 
L 4044 0 
L 2919 0 
L 2919 506 
Q 2688 197 2409 53 
Q 2131 -91 1766 -91 
Q 1119 -91 703 423 
Q 288 938 288 1747 
Q 288 2556 703 3070 
Q 1119 3584 1766 3584 
Q 2128 3584 2408 3439 
Q 2688 3294 2919 2988 
z
M 2181 722 
Q 2541 722 2730 984 
Q 2919 1247 2919 1747 
Q 2919 2247 2730 2509 
Q 2541 2772 2181 2772 
Q 1825 2772 1636 2509 
Q 1447 2247 1447 1747 
Q 1447 1247 1636 984 
Q 1825 722 2181 722 
z
" transform="scale(0.015625)"/>
       <path id="DejaVuSans-Bold-6c" d="M 538 4863 
L 1656 4863 
L 1656 0 
L 538 0 
L 538 4863 
z
" transform="scale(0.015625)"/>
       <path id="DejaVuSans-Bold-79" d="M 78 3500 
L 1197 3500 
L 2138 1125 
L 2938 3500 
L 4056 3500 
L 2584 -331 
Q 2363 -916 2067 -1148 
Q 1772 -1381 1288 -1381 
L 641 -1381 
L 641 -647 
L 991 -647 
Q 1275 -647 1404 -556 
Q 1534 -466 1606 -231 
L 1638 -134 
L 78 3500 
z
" transform="scale(0.015625)"/>
       <path id="DejaVuSans-Bold-20" transform="scale(0.015625)"/>
       <path id="DejaVuSans-Bold-41" d="M 3419 850 
L 1538 850 
L 1241 0 
L 31 0 
L 1759 4666 
L 3194 4666 
L 4922 0 
L 3713 0 
L 3419 850 
z
M 1838 1716 
L 3116 1716 
L 2478 3572 
L 1838 1716 
z
" transform="scale(0.015625)"/>
       <path id="DejaVuSans-Bold-70" d="M 1656 506 
L 1656 -1331 
L 538 -1331 
L 538 3500 
L 1656 3500 
L 1656 2988 
Q 1888 3294 2169 3439 
Q 2450 3584 2816 3584 
Q 3463 3584 3878 3070 
Q 4294 2556 4294 1747 
Q 4294 938 3878 423 
Q 3463 -91 2816 -91 
Q 2450 -91 2169 54 
Q 1888 200 1656 506 
z
M 2400 2772 
Q 2041 2772 1848 2508 
Q 1656 2244 1656 1747 
Q 1656 1250 1848 986 
Q 2041 722 2400 722 
Q 2759 722 2948 984 
Q 3138 1247 3138 1747 
Q 3138 2247 2948 2509 
Q 2759 2772 2400 2772 
z
" transform="scale(0.015625)"/>
       <path id="DejaVuSans-Bold-6f" d="M 2203 2784 
Q 1831 2784 1636 2517 
Q 1441 2250 1441 1747 
Q 1441 1244 1636 976 
Q 1831 709 2203 709 
Q 2569 709 2762 976 
Q 2956 1244 2956 1747 
Q 2956 2250 2762 2517 
Q 2569 2784 2203 2784 
z
M 2203 3584 
Q 3106 3584 3614 3096 
Q 4122 2609 4122 1747 
Q 4122 884 3614 396 
Q 3106 -91 2203 -91 
Q 1297 -91 786 396 
Q 275 884 275 1747 
Q 275 2609 786 3096 
Q 1297 3584 2203 3584 
z
" transform="scale(0.015625)"/>
       <path id="DejaVuSans-Bold-61" d="M 2106 1575 
Q 1756 1575 1579 1456 
Q 1403 1338 1403 1106 
Q 1403 894 1545 773 
Q 1688 653 1941 653 
Q 2256 653 2472 879 
Q 2688 1106 2688 1447 
L 2688 1575 
L 2106 1575 
z
M 3816 1997 
L 3816 0 
L 2688 0 
L 2688 519 
Q 2463 200 2181 54 
Q 1900 -91 1497 -91 
Q 953 -91 614 226 
Q 275 544 275 1050 
Q 275 1666 698 1953 
Q 1122 2241 2028 2241 
L 2688 2241 
L 2688 2328 
Q 2688 2594 2478 2717 
Q 2269 2841 1825 2841 
Q 1466 2841 1156 2769 
Q 847 2697 581 2553 
L 581 3406 
Q 941 3494 1303 3539 
Q 1666 3584 2028 3584 
Q 2975 3584 3395 3211 
Q 3816 2838 3816 1997 
z
" transform="scale(0.015625)"/>
       <path id="DejaVuSans-Bold-63" d="M 3366 3391 
L 3366 2478 
Q 3138 2634 2908 2709 
Q 2678 2784 2431 2784 
Q 1963 2784 1702 2511 
Q 1441 2238 1441 1747 
Q 1441 1256 1702 982 
Q 1963 709 2431 709 
Q 2694 709 2930 787 
Q 3166 866 3366 1019 
L 3366 103 
Q 3103 6 2833 -42 
Q 2563 -91 2291 -91 
Q 1344 -91 809 395 
Q 275 881 275 1747 
Q 275 2613 809 3098 
Q 1344 3584 2291 3584 
Q 2566 3584 2833 3536 
Q 3100 3488 3366 3391 
z
" transform="scale(0.015625)"/>
       <path id="DejaVuSans-Bold-68" d="M 4056 2131 
L 4056 0 
L 2931 0 
L 2931 347 
L 2931 1625 
Q 2931 2084 2911 2256 
Q 2891 2428 2841 2509 
Q 2775 2619 2662 2680 
Q 2550 2741 2406 2741 
Q 2056 2741 1856 2470 
Q 1656 2200 1656 1722 
L 1656 0 
L 538 0 
L 538 4863 
L 1656 4863 
L 1656 2988 
Q 1909 3294 2193 3439 
Q 2478 3584 2822 3584 
Q 3428 3584 3742 3212 
Q 4056 2841 4056 2131 
z
" transform="scale(0.015625)"/>
      </defs>
      <use xlink:href="#DejaVuSans-Bold-46"/>
      <use xlink:href="#DejaVuSans-Bold-72" x="61.935547"/>
      <use xlink:href="#DejaVuSans-Bold-69" x="111.251953"/>
      <use xlink:href="#DejaVuSans-Bold-65" x="145.529297"/>
      <use xlink:href="#DejaVuSans-Bold-6e" x="213.351562"/>
      <use xlink:href="#DejaVuSans-Bold-64" x="284.542969"/>
      <use xlink:href="#DejaVuSans-Bold-6c" x="356.125"/>
      <use xlink:href="#DejaVuSans-Bold-79" x="390.402344"/>
      <use xlink:href="#DejaVuSans-Bold-20" x="455.587891"/>
      <use xlink:href="#DejaVuSans-Bold-41" x="490.402344"/>
      <use xlink:href="#DejaVuSans-Bold-70" x="567.794922"/>
      <use xlink:href="#DejaVuSans-Bold-70" x="639.376953"/>
      <use xlink:href="#DejaVuSans-Bold-72" x="710.958984"/>
      <use xlink:href="#DejaVuSans-Bold-6f" x="760.275391"/>
      <use xlink:href="#DejaVuSans-Bold-61" x="828.976562"/>
      <use xlink:href="#DejaVuSans-Bold-63" x="896.457031"/>
      <use xlink:href="#DejaVuSans-Bold-68" x="955.734375"/>
     </g>
    </g>
   </g>
   <g id="text_9">
    <g clip-path="url(#pa6e39ac9e1)">
     <!-- Respectful Initial Contact -->
     <g transform="translate(514.99701 380.745625) scale(0.09 -0.09)">
      <defs>
       <path id="DejaVuSans-Bold-52" d="M 2297 2597 
Q 2675 2597 2839 2737 
Q 3003 2878 3003 3200 
Q 3003 3519 2839 3656 
Q 2675 3794 2297 3794 
L 1791 3794 
L 1791 2597 
L 2297 2597 
z
M 1791 1766 
L 1791 0 
L 588 0 
L 588 4666 
L 2425 4666 
Q 3347 4666 3776 4356 
Q 4206 4047 4206 3378 
Q 4206 2916 3982 2619 
Q 3759 2322 3309 2181 
Q 3556 2125 3751 1926 
Q 3947 1728 4147 1325 
L 4800 0 
L 3519 0 
L 2950 1159 
Q 2778 1509 2601 1637 
Q 2425 1766 2131 1766 
L 1791 1766 
z
" transform="scale(0.015625)"/>
       <path id="DejaVuSans-Bold-73" d="M 3272 3391 
L 3272 2541 
Q 2913 2691 2578 2766 
Q 2244 2841 1947 2841 
Q 1628 2841 1473 2761 
Q 1319 2681 1319 2516 
Q 1319 2381 1436 2309 
Q 1553 2238 1856 2203 
L 2053 2175 
Q 2913 2066 3209 1816 
Q 3506 1566 3506 1031 
Q 3506 472 3093 190 
Q 2681 -91 1863 -91 
Q 1516 -91 1145 -36 
Q 775 19 384 128 
L 384 978 
Q 719 816 1070 734 
Q 1422 653 1784 653 
Q 2113 653 2278 743 
Q 2444 834 2444 1013 
Q 2444 1163 2330 1236 
Q 2216 1309 1875 1350 
L 1678 1375 
Q 931 1469 631 1722 
Q 331 1975 331 2491 
Q 331 3047 712 3315 
Q 1094 3584 1881 3584 
Q 2191 3584 2531 3537 
Q 2872 3491 3272 3391 
z
" transform="scale(0.015625)"/>
       <path id="DejaVuSans-Bold-74" d="M 1759 4494 
L 1759 3500 
L 2913 3500 
L 2913 2700 
L 1759 2700 
L 1759 1216 
Q 1759 972 1856 886 
Q 1953 800 2241 800 
L 2816 800 
L 2816 0 
L 1856 0 
Q 1194 0 917 276 
Q 641 553 641 1216 
L 641 2700 
L 84 2700 
L 84 3500 
L 641 3500 
L 641 4494 
L 1759 4494 
z
" transform="scale(0.015625)"/>
       <path id="DejaVuSans-Bold-66" d="M 2841 4863 
L 2841 4128 
L 2222 4128 
Q 1984 4128 1890 4042 
Q 1797 3956 1797 3744 
L 1797 3500 
L 2753 3500 
L 2753 2700 
L 1797 2700 
L 1797 0 
L 678 0 
L 678 2700 
L 122 2700 
L 122 3500 
L 678 3500 
L 678 3744 
Q 678 4316 997 4589 
Q 1316 4863 1984 4863 
L 2841 4863 
z
" transform="scale(0.015625)"/>
       <path id="DejaVuSans-Bold-75" d="M 500 1363 
L 500 3500 
L 1625 3500 
L 1625 3150 
Q 1625 2866 1622 2436 
Q 1619 2006 1619 1863 
Q 1619 1441 1641 1255 
Q 1663 1069 1716 984 
Q 1784 875 1895 815 
Q 2006 756 2150 756 
Q 2500 756 2700 1025 
Q 2900 1294 2900 1772 
L 2900 3500 
L 4019 3500 
L 4019 0 
L 2900 0 
L 2900 506 
Q 2647 200 2364 54 
Q 2081 -91 1741 -91 
Q 1134 -91 817 281 
Q 500 653 500 1363 
z
" transform="scale(0.015625)"/>
       <path id="DejaVuSans-Bold-49" d="M 588 4666 
L 1791 4666 
L 1791 0 
L 588 0 
L 588 4666 
z
" transform="scale(0.015625)"/>
       <path id="DejaVuSans-Bold-43" d="M 4288 256 
Q 3956 84 3597 -3 
Q 3238 -91 2847 -91 
Q 1681 -91 1000 561 
Q 319 1213 319 2328 
Q 319 3447 1000 4098 
Q 1681 4750 2847 4750 
Q 3238 4750 3597 4662 
Q 3956 4575 4288 4403 
L 4288 3438 
Q 3953 3666 3628 3772 
Q 3303 3878 2944 3878 
Q 2300 3878 1931 3465 
Q 1563 3053 1563 2328 
Q 1563 1606 1931 1193 
Q 2300 781 2944 781 
Q 3303 781 3628 887 
Q 3953 994 4288 1222 
L 4288 256 
z
" transform="scale(0.015625)"/>
      </defs>
      <use xlink:href="#DejaVuSans-Bold-52"/>
      <use xlink:href="#DejaVuSans-Bold-65" x="77.001953"/>
      <use xlink:href="#DejaVuSans-Bold-73" x="144.824219"/>
      <use xlink:href="#DejaVuSans-Bold-70" x="204.345703"/>
      <use xlink:href="#DejaVuSans-Bold-65" x="275.927734"/>
      <use xlink:href="#DejaVuSans-Bold-63" x="343.75"/>
      <use xlink:href="#DejaVuSans-Bold-74" x="403.027344"/>
      <use xlink:href="#DejaVuSans-Bold-66" x="450.830078"/>
      <use xlink:href="#DejaVuSans-Bold-75" x="494.335938"/>
      <use xlink:href="#DejaVuSans-Bold-6c" x="565.527344"/>
      <use xlink:href="#DejaVuSans-Bold-20" x="599.804688"/>
      <use xlink:href="#DejaVuSans-Bold-49" x="634.619141"/>
      <use xlink:href="#DejaVuSans-Bold-6e" x="671.826172"/>
      <use xlink:href="#DejaVuSans-Bold-69" x="743.017578"/>
      <use xlink:href="#DejaVuSans-Bold-74" x="777.294922"/>
      <use xlink:href="#DejaVuSans-Bold-69" x="825.097656"/>
      <use xlink:href="#DejaVuSans-Bold-61" x="859.375"/>
      <use xlink:href="#DejaVuSans-Bold-6c" x="926.855469"/>
      <use xlink:href="#DejaVuSans-Bold-20" x="961.132812"/>
      <use xlink:href="#DejaVuSans-Bold-43" x="995.947266"/>
      <use xlink:href="#DejaVuSans-Bold-6f" x="1069.335938"/>
      <use xlink:href="#DejaVuSans-Bold-6e" x="1138.037109"/>
      <use xlink:href="#DejaVuSans-Bold-74" x="1209.228516"/>
      <use xlink:href="#DejaVuSans-Bold-61" x="1257.03125"/>
      <use xlink:href="#DejaVuSans-Bold-63" x="1324.511719"/>
      <use xlink:href="#DejaVuSans-Bold-74" x="1383.789062"/>
     </g>
    </g>
   </g>
   <g id="text_10">
    <g clip-path="url(#pa6e39ac9e1)">
     <!-- Selective/Playful Offer of Contact -->
     <g transform="translate(435.969344 273.618488) scale(0.09 -0.09)">
      <defs>
       <path id="DejaVuSans-Bold-53" d="M 3834 4519 
L 3834 3531 
Q 3450 3703 3084 3790 
Q 2719 3878 2394 3878 
Q 1963 3878 1756 3759 
Q 1550 3641 1550 3391 
Q 1550 3203 1689 3098 
Q 1828 2994 2194 2919 
L 2706 2816 
Q 3484 2659 3812 2340 
Q 4141 2022 4141 1434 
Q 4141 663 3683 286 
Q 3225 -91 2284 -91 
Q 1841 -91 1394 -6 
Q 947 78 500 244 
L 500 1259 
Q 947 1022 1364 901 
Q 1781 781 2169 781 
Q 2563 781 2772 912 
Q 2981 1044 2981 1288 
Q 2981 1506 2839 1625 
Q 2697 1744 2272 1838 
L 1806 1941 
Q 1106 2091 782 2419 
Q 459 2747 459 3303 
Q 459 4000 909 4375 
Q 1359 4750 2203 4750 
Q 2588 4750 2994 4692 
Q 3400 4634 3834 4519 
z
" transform="scale(0.015625)"/>
       <path id="DejaVuSans-Bold-76" d="M 97 3500 
L 1216 3500 
L 2088 1081 
L 2956 3500 
L 4078 3500 
L 2700 0 
L 1472 0 
L 97 3500 
z
" transform="scale(0.015625)"/>
       <path id="DejaVuSans-Bold-2f" d="M 1644 4666 
L 2338 4666 
L 691 -594 
L 0 -594 
L 1644 4666 
z
" transform="scale(0.015625)"/>
       <path id="DejaVuSans-Bold-50" d="M 588 4666 
L 2584 4666 
Q 3475 4666 3951 4270 
Q 4428 3875 4428 3144 
Q 4428 2409 3951 2014 
Q 3475 1619 2584 1619 
L 1791 1619 
L 1791 0 
L 588 0 
L 588 4666 
z
M 1791 3794 
L 1791 2491 
L 2456 2491 
Q 2806 2491 2997 2661 
Q 3188 2831 3188 3144 
Q 3188 3456 2997 3625 
Q 2806 3794 2456 3794 
L 1791 3794 
z
" transform="scale(0.015625)"/>
       <path id="DejaVuSans-Bold-4f" d="M 2719 3878 
Q 2169 3878 1866 3472 
Q 1563 3066 1563 2328 
Q 1563 1594 1866 1187 
Q 2169 781 2719 781 
Q 3272 781 3575 1187 
Q 3878 1594 3878 2328 
Q 3878 3066 3575 3472 
Q 3272 3878 2719 3878 
z
M 2719 4750 
Q 3844 4750 4481 4106 
Q 5119 3463 5119 2328 
Q 5119 1197 4481 553 
Q 3844 -91 2719 -91 
Q 1597 -91 958 553 
Q 319 1197 319 2328 
Q 319 3463 958 4106 
Q 1597 4750 2719 4750 
z
" transform="scale(0.015625)"/>
      </defs>
      <use xlink:href="#DejaVuSans-Bold-53"/>
      <use xlink:href="#DejaVuSans-Bold-65" x="72.021484"/>
      <use xlink:href="#DejaVuSans-Bold-6c" x="139.84375"/>
      <use xlink:href="#DejaVuSans-Bold-65" x="174.121094"/>
      <use xlink:href="#DejaVuSans-Bold-63" x="241.943359"/>
      <use xlink:href="#DejaVuSans-Bold-74" x="301.220703"/>
      <use xlink:href="#DejaVuSans-Bold-69" x="349.023438"/>
      <use xlink:href="#DejaVuSans-Bold-76" x="383.300781"/>
      <use xlink:href="#DejaVuSans-Bold-65" x="448.486328"/>
      <use xlink:href="#DejaVuSans-Bold-2f" x="516.308594"/>
      <use xlink:href="#DejaVuSans-Bold-50" x="552.832031"/>
      <use xlink:href="#DejaVuSans-Bold-6c" x="626.123047"/>
      <use xlink:href="#DejaVuSans-Bold-61" x="660.400391"/>
      <use xlink:href="#DejaVuSans-Bold-79" x="724.755859"/>
      <use xlink:href="#DejaVuSans-Bold-66" x="789.941406"/>
      <use xlink:href="#DejaVuSans-Bold-75" x="833.447266"/>
      <use xlink:href="#DejaVuSans-Bold-6c" x="904.638672"/>
      <use xlink:href="#DejaVuSans-Bold-20" x="938.916016"/>
      <use xlink:href="#DejaVuSans-Bold-4f" x="973.730469"/>
      <use xlink:href="#DejaVuSans-Bold-66" x="1058.740234"/>
      <use xlink:href="#DejaVuSans-Bold-66" x="1102.246094"/>
      <use xlink:href="#DejaVuSans-Bold-65" x="1145.751953"/>
      <use xlink:href="#DejaVuSans-Bold-72" x="1213.574219"/>
      <use xlink:href="#DejaVuSans-Bold-20" x="1262.890625"/>
      <use xlink:href="#DejaVuSans-Bold-6f" x="1297.705078"/>
      <use xlink:href="#DejaVuSans-Bold-66" x="1366.40625"/>
      <use xlink:href="#DejaVuSans-Bold-20" x="1409.912109"/>
      <use xlink:href="#DejaVuSans-Bold-43" x="1444.726562"/>
      <use xlink:href="#DejaVuSans-Bold-6f" x="1518.115234"/>
      <use xlink:href="#DejaVuSans-Bold-6e" x="1586.816406"/>
      <use xlink:href="#DejaVuSans-Bold-74" x="1658.007812"/>
      <use xlink:href="#DejaVuSans-Bold-61" x="1705.810547"/>
      <use xlink:href="#DejaVuSans-Bold-63" x="1773.291016"/>
      <use xlink:href="#DejaVuSans-Bold-74" x="1832.568359"/>
     </g>
    </g>
   </g>
   <g id="text_11">
    <g clip-path="url(#pa6e39ac9e1)">
     <!-- Short Pause and Observation -->
     <g transform="translate(324.475265 182.328882) scale(0.09 -0.09)">
      <defs>
       <path id="DejaVuSans-Bold-62" d="M 2400 722 
Q 2759 722 2948 984 
Q 3138 1247 3138 1747 
Q 3138 2247 2948 2509 
Q 2759 2772 2400 2772 
Q 2041 2772 1848 2508 
Q 1656 2244 1656 1747 
Q 1656 1250 1848 986 
Q 2041 722 2400 722 
z
M 1656 2988 
Q 1888 3294 2169 3439 
Q 2450 3584 2816 3584 
Q 3463 3584 3878 3070 
Q 4294 2556 4294 1747 
Q 4294 938 3878 423 
Q 3463 -91 2816 -91 
Q 2450 -91 2169 54 
Q 1888 200 1656 506 
L 1656 0 
L 538 0 
L 538 4863 
L 1656 4863 
L 1656 2988 
z
" transform="scale(0.015625)"/>
      </defs>
      <use xlink:href="#DejaVuSans-Bold-53"/>
      <use xlink:href="#DejaVuSans-Bold-68" x="72.021484"/>
      <use xlink:href="#DejaVuSans-Bold-6f" x="143.212891"/>
      <use xlink:href="#DejaVuSans-Bold-72" x="211.914062"/>
      <use xlink:href="#DejaVuSans-Bold-74" x="261.230469"/>
      <use xlink:href="#DejaVuSans-Bold-20" x="309.033203"/>
      <use xlink:href="#DejaVuSans-Bold-50" x="343.847656"/>
      <use xlink:href="#DejaVuSans-Bold-61" x="414.513672"/>
      <use xlink:href="#DejaVuSans-Bold-75" x="481.994141"/>
      <use xlink:href="#DejaVuSans-Bold-73" x="553.185547"/>
      <use xlink:href="#DejaVuSans-Bold-65" x="612.707031"/>
      <use xlink:href="#DejaVuSans-Bold-20" x="680.529297"/>
      <use xlink:href="#DejaVuSans-Bold-61" x="715.34375"/>
      <use xlink:href="#DejaVuSans-Bold-6e" x="782.824219"/>
      <use xlink:href="#DejaVuSans-Bold-64" x="854.015625"/>
      <use xlink:href="#DejaVuSans-Bold-20" x="925.597656"/>
      <use xlink:href="#DejaVuSans-Bold-4f" x="960.412109"/>
      <use xlink:href="#DejaVuSans-Bold-62" x="1045.421875"/>
      <use xlink:href="#DejaVuSans-Bold-73" x="1117.003906"/>
      <use xlink:href="#DejaVuSans-Bold-65" x="1176.525391"/>
      <use xlink:href="#DejaVuSans-Bold-72" x="1244.347656"/>
      <use xlink:href="#DejaVuSans-Bold-76" x="1293.664062"/>
      <use xlink:href="#DejaVuSans-Bold-61" x="1358.849609"/>
      <use xlink:href="#DejaVuSans-Bold-74" x="1426.330078"/>
      <use xlink:href="#DejaVuSans-Bold-69" x="1474.132812"/>
      <use xlink:href="#DejaVuSans-Bold-6f" x="1508.410156"/>
      <use xlink:href="#DejaVuSans-Bold-6e" x="1577.111328"/>
     </g>
    </g>
   </g>
   <g id="text_12">
    <g clip-path="url(#pa6e39ac9e1)">
     <!-- Prolonged Vocal Connection -->
     <g transform="translate(267.559523 235.197477) scale(0.09 -0.09)">
      <defs>
       <path id="DejaVuSans-Bold-67" d="M 2919 594 
Q 2688 288 2409 144 
Q 2131 0 1766 0 
Q 1125 0 706 504 
Q 288 1009 288 1791 
Q 288 2575 706 3076 
Q 1125 3578 1766 3578 
Q 2131 3578 2409 3434 
Q 2688 3291 2919 2981 
L 2919 3500 
L 4044 3500 
L 4044 353 
Q 4044 -491 3511 -936 
Q 2978 -1381 1966 -1381 
Q 1638 -1381 1331 -1331 
Q 1025 -1281 716 -1178 
L 716 -306 
Q 1009 -475 1290 -558 
Q 1572 -641 1856 -641 
Q 2406 -641 2662 -400 
Q 2919 -159 2919 353 
L 2919 594 
z
M 2181 2772 
Q 1834 2772 1640 2515 
Q 1447 2259 1447 1791 
Q 1447 1309 1634 1061 
Q 1822 813 2181 813 
Q 2531 813 2725 1069 
Q 2919 1325 2919 1791 
Q 2919 2259 2725 2515 
Q 2531 2772 2181 2772 
z
" transform="scale(0.015625)"/>
       <path id="DejaVuSans-Bold-56" d="M 31 4666 
L 1241 4666 
L 2478 1222 
L 3713 4666 
L 4922 4666 
L 3194 0 
L 1759 0 
L 31 4666 
z
" transform="scale(0.015625)"/>
      </defs>
      <use xlink:href="#DejaVuSans-Bold-50"/>
      <use xlink:href="#DejaVuSans-Bold-72" x="73.291016"/>
      <use xlink:href="#DejaVuSans-Bold-6f" x="122.607422"/>
      <use xlink:href="#DejaVuSans-Bold-6c" x="191.308594"/>
      <use xlink:href="#DejaVuSans-Bold-6f" x="225.585938"/>
      <use xlink:href="#DejaVuSans-Bold-6e" x="294.287109"/>
      <use xlink:href="#DejaVuSans-Bold-67" x="365.478516"/>
      <use xlink:href="#DejaVuSans-Bold-65" x="437.060547"/>
      <use xlink:href="#DejaVuSans-Bold-64" x="504.882812"/>
      <use xlink:href="#DejaVuSans-Bold-20" x="576.464844"/>
      <use xlink:href="#DejaVuSans-Bold-56" x="611.279297"/>
      <use xlink:href="#DejaVuSans-Bold-6f" x="683.171875"/>
      <use xlink:href="#DejaVuSans-Bold-63" x="751.873047"/>
      <use xlink:href="#DejaVuSans-Bold-61" x="811.150391"/>
      <use xlink:href="#DejaVuSans-Bold-6c" x="878.630859"/>
      <use xlink:href="#DejaVuSans-Bold-20" x="912.908203"/>
      <use xlink:href="#DejaVuSans-Bold-43" x="947.722656"/>
      <use xlink:href="#DejaVuSans-Bold-6f" x="1021.111328"/>
      <use xlink:href="#DejaVuSans-Bold-6e" x="1089.8125"/>
      <use xlink:href="#DejaVuSans-Bold-6e" x="1161.003906"/>
      <use xlink:href="#DejaVuSans-Bold-65" x="1232.195312"/>
      <use xlink:href="#DejaVuSans-Bold-63" x="1300.017578"/>
      <use xlink:href="#DejaVuSans-Bold-74" x="1359.294922"/>
      <use xlink:href="#DejaVuSans-Bold-69" x="1407.097656"/>
      <use xlink:href="#DejaVuSans-Bold-6f" x="1441.375"/>
      <use xlink:href="#DejaVuSans-Bold-6e" x="1510.076172"/>
     </g>
    </g>
   </g>
   <g id="text_13">
    <g clip-path="url(#pa6e39ac9e1)">
     <!-- Distance with Vigilance -->
     <g transform="translate(5.837582 68.824432) scale(0.09 -0.09)">
      <defs>
       <path id="DejaVuSans-Bold-44" d="M 1791 3756 
L 1791 909 
L 2222 909 
Q 2959 909 3348 1275 
Q 3738 1641 3738 2338 
Q 3738 3031 3350 3393 
Q 2963 3756 2222 3756 
L 1791 3756 
z
M 588 4666 
L 1856 4666 
Q 2919 4666 3439 4514 
Q 3959 4363 4331 4000 
Q 4659 3684 4818 3271 
Q 4978 2859 4978 2338 
Q 4978 1809 4818 1395 
Q 4659 981 4331 666 
Q 3956 303 3431 151 
Q 2906 0 1856 0 
L 588 0 
L 588 4666 
z
" transform="scale(0.015625)"/>
       <path id="DejaVuSans-Bold-77" d="M 225 3500 
L 1313 3500 
L 1900 1088 
L 2491 3500 
L 3425 3500 
L 4013 1113 
L 4603 3500 
L 5691 3500 
L 4769 0 
L 3547 0 
L 2956 2406 
L 2369 0 
L 1147 0 
L 225 3500 
z
" transform="scale(0.015625)"/>
      </defs>
      <use xlink:href="#DejaVuSans-Bold-44"/>
      <use xlink:href="#DejaVuSans-Bold-69" x="83.007812"/>
      <use xlink:href="#DejaVuSans-Bold-73" x="117.285156"/>
      <use xlink:href="#DejaVuSans-Bold-74" x="176.806641"/>
      <use xlink:href="#DejaVuSans-Bold-61" x="224.609375"/>
      <use xlink:href="#DejaVuSans-Bold-6e" x="292.089844"/>
      <use xlink:href="#DejaVuSans-Bold-63" x="363.28125"/>
      <use xlink:href="#DejaVuSans-Bold-65" x="422.558594"/>
      <use xlink:href="#DejaVuSans-Bold-20" x="490.380859"/>
      <use xlink:href="#DejaVuSans-Bold-77" x="525.195312"/>
      <use xlink:href="#DejaVuSans-Bold-69" x="617.578125"/>
      <use xlink:href="#DejaVuSans-Bold-74" x="651.855469"/>
      <use xlink:href="#DejaVuSans-Bold-68" x="699.658203"/>
      <use xlink:href="#DejaVuSans-Bold-20" x="770.849609"/>
      <use xlink:href="#DejaVuSans-Bold-56" x="805.664062"/>
      <use xlink:href="#DejaVuSans-Bold-69" x="881.306641"/>
      <use xlink:href="#DejaVuSans-Bold-67" x="915.583984"/>
      <use xlink:href="#DejaVuSans-Bold-69" x="987.166016"/>
      <use xlink:href="#DejaVuSans-Bold-6c" x="1021.443359"/>
      <use xlink:href="#DejaVuSans-Bold-61" x="1055.720703"/>
      <use xlink:href="#DejaVuSans-Bold-6e" x="1123.201172"/>
      <use xlink:href="#DejaVuSans-Bold-63" x="1194.392578"/>
      <use xlink:href="#DejaVuSans-Bold-65" x="1253.669922"/>
     </g>
    </g>
   </g>
   <g id="text_14">
    <!-- Amyst – Living Graph (Weighted): Interaction with the UNAS Campus Dog -->
    <g style="fill: #333333" transform="translate(72.658281 17.077969) scale(0.13 -0.13)">
     <defs>
      <path id="DejaVuSans-Bold-6d" d="M 3781 2919 
Q 3994 3244 4286 3414 
Q 4578 3584 4928 3584 
Q 5531 3584 5847 3212 
Q 6163 2841 6163 2131 
L 6163 0 
L 5038 0 
L 5038 1825 
Q 5041 1866 5042 1909 
Q 5044 1953 5044 2034 
Q 5044 2406 4934 2573 
Q 4825 2741 4581 2741 
Q 4263 2741 4089 2478 
Q 3916 2216 3909 1719 
L 3909 0 
L 2784 0 
L 2784 1825 
Q 2784 2406 2684 2573 
Q 2584 2741 2328 2741 
Q 2006 2741 1831 2477 
Q 1656 2213 1656 1722 
L 1656 0 
L 531 0 
L 531 3500 
L 1656 3500 
L 1656 2988 
Q 1863 3284 2130 3434 
Q 2397 3584 2719 3584 
Q 3081 3584 3359 3409 
Q 3638 3234 3781 2919 
z
" transform="scale(0.015625)"/>
      <path id="DejaVuSans-Bold-2013" d="M 344 2156 
L 2856 2156 
L 2856 1350 
L 344 1350 
L 344 2156 
z
" transform="scale(0.015625)"/>
      <path id="DejaVuSans-Bold-4c" d="M 588 4666 
L 1791 4666 
L 1791 909 
L 3903 909 
L 3903 0 
L 588 0 
L 588 4666 
z
" transform="scale(0.015625)"/>
      <path id="DejaVuSans-Bold-47" d="M 4781 347 
Q 4331 128 3847 18 
Q 3363 -91 2847 -91 
Q 1681 -91 1000 561 
Q 319 1213 319 2328 
Q 319 3456 1012 4103 
Q 1706 4750 2913 4750 
Q 3378 4750 3804 4662 
Q 4231 4575 4609 4403 
L 4609 3438 
Q 4219 3659 3833 3768 
Q 3447 3878 3059 3878 
Q 2341 3878 1952 3476 
Q 1563 3075 1563 2328 
Q 1563 1588 1938 1184 
Q 2313 781 3003 781 
Q 3191 781 3352 804 
Q 3513 828 3641 878 
L 3641 1784 
L 2906 1784 
L 2906 2591 
L 4781 2591 
L 4781 347 
z
" transform="scale(0.015625)"/>
      <path id="DejaVuSans-Bold-28" d="M 2413 -844 
L 1484 -844 
Q 1006 -72 778 623 
Q 550 1319 550 2003 
Q 550 2688 779 3389 
Q 1009 4091 1484 4856 
L 2413 4856 
Q 2013 4116 1813 3408 
Q 1613 2700 1613 2009 
Q 1613 1319 1811 609 
Q 2009 -100 2413 -844 
z
" transform="scale(0.015625)"/>
      <path id="DejaVuSans-Bold-57" d="M 191 4666 
L 1344 4666 
L 2150 1275 
L 2950 4666 
L 4109 4666 
L 4909 1275 
L 5716 4666 
L 6859 4666 
L 5759 0 
L 4372 0 
L 3525 3547 
L 2688 0 
L 1300 0 
L 191 4666 
z
" transform="scale(0.015625)"/>
      <path id="DejaVuSans-Bold-29" d="M 513 -844 
Q 913 -100 1113 609 
Q 1313 1319 1313 2009 
Q 1313 2700 1113 3408 
Q 913 4116 513 4856 
L 1441 4856 
Q 1916 4091 2145 3389 
Q 2375 2688 2375 2003 
Q 2375 1319 2147 623 
Q 1919 -72 1441 -844 
L 513 -844 
z
" transform="scale(0.015625)"/>
      <path id="DejaVuSans-Bold-3a" d="M 716 3500 
L 1844 3500 
L 1844 2291 
L 716 2291 
L 716 3500 
z
M 716 1209 
L 1844 1209 
L 1844 0 
L 716 0 
L 716 1209 
z
" transform="scale(0.015625)"/>
      <path id="DejaVuSans-Bold-55" d="M 588 4666 
L 1791 4666 
L 1791 1869 
Q 1791 1291 1980 1042 
Q 2169 794 2597 794 
Q 3028 794 3217 1042 
Q 3406 1291 3406 1869 
L 3406 4666 
L 4609 4666 
L 4609 1869 
Q 4609 878 4112 393 
Q 3616 -91 2597 -91 
Q 1581 -91 1084 393 
Q 588 878 588 1869 
L 588 4666 
z
" transform="scale(0.015625)"/>
      <path id="DejaVuSans-Bold-4e" d="M 588 4666 
L 1931 4666 
L 3628 1466 
L 3628 4666 
L 4769 4666 
L 4769 0 
L 3425 0 
L 1728 3200 
L 1728 0 
L 588 0 
L 588 4666 
z
" transform="scale(0.015625)"/>
     </defs>
     <use xlink:href="#DejaVuSans-Bold-41"/>
     <use xlink:href="#DejaVuSans-Bold-6d" x="77.392578"/>
     <use xlink:href="#DejaVuSans-Bold-79" x="181.591797"/>
     <use xlink:href="#DejaVuSans-Bold-73" x="246.777344"/>
     <use xlink:href="#DejaVuSans-Bold-74" x="306.298828"/>
     <use xlink:href="#DejaVuSans-Bold-20" x="354.101562"/>
     <use xlink:href="#DejaVuSans-Bold-2013" x="388.916016"/>
     <use xlink:href="#DejaVuSans-Bold-20" x="438.916016"/>
     <use xlink:href="#DejaVuSans-Bold-4c" x="473.730469"/>
     <use xlink:href="#DejaVuSans-Bold-69" x="537.451172"/>
     <use xlink:href="#DejaVuSans-Bold-76" x="571.728516"/>
     <use xlink:href="#DejaVuSans-Bold-69" x="636.914062"/>
     <use xlink:href="#DejaVuSans-Bold-6e" x="671.191406"/>
     <use xlink:href="#DejaVuSans-Bold-67" x="742.382812"/>
     <use xlink:href="#DejaVuSans-Bold-20" x="813.964844"/>
     <use xlink:href="#DejaVuSans-Bold-47" x="848.779297"/>
     <use xlink:href="#DejaVuSans-Bold-72" x="930.859375"/>
     <use xlink:href="#DejaVuSans-Bold-61" x="980.175781"/>
     <use xlink:href="#DejaVuSans-Bold-70" x="1047.65625"/>
     <use xlink:href="#DejaVuSans-Bold-68" x="1119.238281"/>
     <use xlink:href="#DejaVuSans-Bold-20" x="1190.429688"/>
     <use xlink:href="#DejaVuSans-Bold-28" x="1225.244141"/>
     <use xlink:href="#DejaVuSans-Bold-57" x="1270.947266"/>
     <use xlink:href="#DejaVuSans-Bold-65" x="1377.625"/>
     <use xlink:href="#DejaVuSans-Bold-69" x="1445.447266"/>
     <use xlink:href="#DejaVuSans-Bold-67" x="1479.724609"/>
     <use xlink:href="#DejaVuSans-Bold-68" x="1551.306641"/>
     <use xlink:href="#DejaVuSans-Bold-74" x="1622.498047"/>
     <use xlink:href="#DejaVuSans-Bold-65" x="1670.300781"/>
     <use xlink:href="#DejaVuSans-Bold-64" x="1738.123047"/>
     <use xlink:href="#DejaVuSans-Bold-29" x="1809.705078"/>
     <use xlink:href="#DejaVuSans-Bold-3a" x="1855.408203"/>
     <use xlink:href="#DejaVuSans-Bold-20" x="1895.398438"/>
     <use xlink:href="#DejaVuSans-Bold-49" x="1930.212891"/>
     <use xlink:href="#DejaVuSans-Bold-6e" x="1967.419922"/>
     <use xlink:href="#DejaVuSans-Bold-74" x="2038.611328"/>
     <use xlink:href="#DejaVuSans-Bold-65" x="2086.414062"/>
     <use xlink:href="#DejaVuSans-Bold-72" x="2154.236328"/>
     <use xlink:href="#DejaVuSans-Bold-61" x="2203.552734"/>
     <use xlink:href="#DejaVuSans-Bold-63" x="2271.033203"/>
     <use xlink:href="#DejaVuSans-Bold-74" x="2330.310547"/>
     <use xlink:href="#DejaVuSans-Bold-69" x="2378.113281"/>
     <use xlink:href="#DejaVuSans-Bold-6f" x="2412.390625"/>
     <use xlink:href="#DejaVuSans-Bold-6e" x="2481.091797"/>
     <use xlink:href="#DejaVuSans-Bold-20" x="2552.283203"/>
     <use xlink:href="#DejaVuSans-Bold-77" x="2587.097656"/>
     <use xlink:href="#DejaVuSans-Bold-69" x="2679.480469"/>
     <use xlink:href="#DejaVuSans-Bold-74" x="2713.757812"/>
     <use xlink:href="#DejaVuSans-Bold-68" x="2761.560547"/>
     <use xlink:href="#DejaVuSans-Bold-20" x="2832.751953"/>
     <use xlink:href="#DejaVuSans-Bold-74" x="2867.566406"/>
     <use xlink:href="#DejaVuSans-Bold-68" x="2915.369141"/>
     <use xlink:href="#DejaVuSans-Bold-65" x="2986.560547"/>
     <use xlink:href="#DejaVuSans-Bold-20" x="3054.382812"/>
     <use xlink:href="#DejaVuSans-Bold-55" x="3089.197266"/>
     <use xlink:href="#DejaVuSans-Bold-4e" x="3170.398438"/>
     <use xlink:href="#DejaVuSans-Bold-41" x="3254.089844"/>
     <use xlink:href="#DejaVuSans-Bold-53" x="3331.482422"/>
     <use xlink:href="#DejaVuSans-Bold-20" x="3403.503906"/>
     <use xlink:href="#DejaVuSans-Bold-43" x="3438.318359"/>
     <use xlink:href="#DejaVuSans-Bold-61" x="3511.707031"/>
     <use xlink:href="#DejaVuSans-Bold-6d" x="3579.1875"/>
     <use xlink:href="#DejaVuSans-Bold-70" x="3683.386719"/>
     <use xlink:href="#DejaVuSans-Bold-75" x="3754.96875"/>
     <use xlink:href="#DejaVuSans-Bold-73" x="3826.160156"/>
     <use xlink:href="#DejaVuSans-Bold-20" x="3885.681641"/>
     <use xlink:href="#DejaVuSans-Bold-44" x="3920.496094"/>
     <use xlink:href="#DejaVuSans-Bold-6f" x="4003.503906"/>
     <use xlink:href="#DejaVuSans-Bold-67" x="4072.205078"/>
    </g>
   </g>
  </g>
 </g>
 <defs>
  <clipPath id="pa6e39ac9e1">
   <rect x="7.2" y="23.077969" width="669.6" height="498.96"/>
  </clipPath>
 </defs>
</svg>
